<mxfile host="app.diagrams.net" modified="2023-08-28T11:06:19.177Z" agent="Mozilla/5.0 (Windows NT 10.0; Win64; x64) AppleWebKit/537.36 (KHTML, like Gecko) Chrome/116.0.0.0 Safari/537.36" version="21.6.9" etag="GBS1jrGPA0ebtAipump-" type="github">
  <diagram name="第 1 页" id="_0uviGTeuUNG6I7WkmDl">
    <mxGraphModel>
      <root>
        <mxCell id="0" />
        <mxCell id="1" parent="0" />
        <mxCell id="2" value="防火墙" style="whiteSpace=wrap;strokeWidth=2;verticalAlign=top;" vertex="1" parent="1">
          <mxGeometry y="134" width="522" height="84" as="geometry" />
        </mxCell>
        <mxCell id="3" value="防火墙" style="rounded=1;absoluteArcSize=1;arcSize=14;whiteSpace=wrap;strokeWidth=2;" vertex="1" parent="1">
          <mxGeometry x="230" y="159" width="63" height="34" as="geometry" />
        </mxCell>
        <mxCell id="4" value="公网" style="whiteSpace=wrap;strokeWidth=2;verticalAlign=top;" vertex="1" parent="1">
          <mxGeometry x="20" y="267" width="482" height="84" as="geometry" />
        </mxCell>
        <mxCell id="5" value="公网服务器D" style="rounded=1;absoluteArcSize=1;arcSize=14;whiteSpace=wrap;strokeWidth=2;" vertex="1" parent="1">
          <mxGeometry x="55" y="292" width="105" height="34" as="geometry" />
        </mxCell>
        <mxCell id="6" value="公网服务器E" style="rounded=1;absoluteArcSize=1;arcSize=14;whiteSpace=wrap;strokeWidth=2;" vertex="1" parent="1">
          <mxGeometry x="210" y="292" width="104" height="34" as="geometry" />
        </mxCell>
        <mxCell id="7" value="公网服务器F" style="rounded=1;absoluteArcSize=1;arcSize=14;whiteSpace=wrap;strokeWidth=2;" vertex="1" parent="1">
          <mxGeometry x="364" y="292" width="104" height="34" as="geometry" />
        </mxCell>
        <mxCell id="8" value="内网" style="whiteSpace=wrap;strokeWidth=2;verticalAlign=top;" vertex="1" parent="1">
          <mxGeometry x="29" width="484" height="84" as="geometry" />
        </mxCell>
        <mxCell id="9" value="内网服务器A" style="rounded=1;absoluteArcSize=1;arcSize=14;whiteSpace=wrap;strokeWidth=2;" vertex="1" parent="1">
          <mxGeometry x="64" y="25" width="105" height="34" as="geometry" />
        </mxCell>
        <mxCell id="10" value="内网服务器B" style="rounded=1;absoluteArcSize=1;arcSize=14;whiteSpace=wrap;strokeWidth=2;" vertex="1" parent="1">
          <mxGeometry x="219" y="25" width="104" height="34" as="geometry" />
        </mxCell>
        <mxCell id="11" value="内网服务器C" style="rounded=1;absoluteArcSize=1;arcSize=14;whiteSpace=wrap;strokeWidth=2;" vertex="1" parent="1">
          <mxGeometry x="373" y="25" width="105" height="34" as="geometry" />
        </mxCell>
        <mxCell id="12" value="" style="curved=1;startArrow=none;endArrow=block;exitX=0.5022321246919178;exitY=0.9901961158303654;entryX=0.005042969234406002;entryY=0.21815560951555277;" edge="1" parent="1" source="9" target="3">
          <mxGeometry relative="1" as="geometry">
            <Array as="points">
              <mxPoint x="117" y="134" />
            </Array>
          </mxGeometry>
        </mxCell>
        <mxCell id="13" value="" style="curved=1;startArrow=none;endArrow=block;exitX=0.5025540681985708;exitY=0.9901961158303654;entryX=0.5653882257105758;entryY=-0.00980388416963465;" edge="1" parent="1" source="10" target="3">
          <mxGeometry relative="1" as="geometry">
            <Array as="points">
              <mxPoint x="271" y="134" />
            </Array>
          </mxGeometry>
        </mxCell>
        <mxCell id="14" value="" style="curved=1;startArrow=none;endArrow=block;exitX=0.5007936205182757;exitY=0.9901961158303654;entryX=1.005042969234406;entryY=0.24863062495983335;" edge="1" parent="1" source="11" target="3">
          <mxGeometry relative="1" as="geometry">
            <Array as="points">
              <mxPoint x="426" y="134" />
            </Array>
          </mxGeometry>
        </mxCell>
        <mxCell id="15" value="" style="curved=1;startArrow=none;endArrow=block;exitX=0.005042969234406002;exitY=0.7362608159645627;entryX=0.4989087241036551;entryY=0.009803996366613051;" edge="1" parent="1" source="3" target="5">
          <mxGeometry relative="1" as="geometry">
            <Array as="points">
              <mxPoint x="107" y="217" />
            </Array>
          </mxGeometry>
        </mxCell>
        <mxCell id="16" value="" style="curved=1;startArrow=none;endArrow=block;exitX=0.5044109034590106;exitY=0.9803922316607308;entryX=0.49729565473703236;entryY=0.009803996366613051;" edge="1" parent="1" source="3" target="6">
          <mxGeometry relative="1" as="geometry">
            <Array as="points">
              <mxPoint x="262" y="217" />
            </Array>
          </mxGeometry>
        </mxCell>
        <mxCell id="17" value="" style="curved=1;startArrow=none;endArrow=block;exitX=1.005042969234406;exitY=0.7376737576641746;entryX=0.4940905020787166;entryY=0.009803996366613051;" edge="1" parent="1" source="3" target="7">
          <mxGeometry relative="1" as="geometry">
            <Array as="points">
              <mxPoint x="415" y="217" />
            </Array>
          </mxGeometry>
        </mxCell>
      </root>
    </mxGraphModel>
  </diagram>
</mxfile>
